<mxfile host="app.diagrams.net" modified="2023-06-15T18:44:39.715Z" agent="Mozilla/5.0 (Macintosh; Intel Mac OS X 10_15_7) AppleWebKit/537.36 (KHTML, like Gecko) Chrome/114.0.0.0 Safari/537.36" etag="2kUxJUloZMozKSBMba-C" version="21.3.8" type="github">
  <diagram name="Page-1" id="TptWw6vDW5uZPmBL174k">
    <mxGraphModel dx="2176" dy="1074" grid="1" gridSize="10" guides="1" tooltips="1" connect="1" arrows="1" fold="1" page="1" pageScale="1" pageWidth="1100" pageHeight="850" background="#FFFFFF" math="0" shadow="0">
      <root>
        <mxCell id="0" />
        <mxCell id="1" parent="0" />
        <mxCell id="qApgE1zXyVd_ZcpVIJfP-79" value="&lt;u&gt;Success or fail log:&lt;br&gt;&lt;/u&gt;File name&lt;br&gt;Timestamp&lt;br&gt;Message" style="whiteSpace=wrap;html=1;aspect=fixed;labelBackgroundColor=#FFFCF0;fontFamily=Helvetica;fontSize=11;fillColor=#ffff88;gradientDirection=south;opacity=60;strokeColor=#36393d;align=left;" parent="1" vertex="1">
          <mxGeometry x="-250" y="490" width="110" height="110" as="geometry" />
        </mxCell>
        <mxCell id="qApgE1zXyVd_ZcpVIJfP-80" value="" style="shape=flexArrow;endArrow=classic;html=1;rounded=0;endWidth=17.333333333333332;endSize=4.42;width=8;fillColor=#FFFFFF;entryX=0;entryY=0.5;entryDx=0;entryDy=0;entryPerimeter=0;exitX=0.5;exitY=1;exitDx=0;exitDy=0;" parent="1" source="qApgE1zXyVd_ZcpVIJfP-107" target="qApgE1zXyVd_ZcpVIJfP-109" edge="1">
          <mxGeometry width="50" height="50" relative="1" as="geometry">
            <mxPoint x="-371" y="1110" as="sourcePoint" />
            <mxPoint x="-291" y="1110" as="targetPoint" />
            <Array as="points">
              <mxPoint x="-279" y="1098" />
            </Array>
          </mxGeometry>
        </mxCell>
        <mxCell id="qApgE1zXyVd_ZcpVIJfP-81" value="AWS Step Functions workflow" style="sketch=0;outlineConnect=0;gradientColor=none;html=1;whiteSpace=wrap;fontSize=12;fontStyle=0;shape=mxgraph.aws4.group;grIcon=mxgraph.aws4.group_aws_step_functions_workflow;strokeColor=#545B64;fillColor=#FFFEF7;verticalAlign=top;align=left;spacingLeft=30;fontColor=#545B64;dashed=0;gradientDirection=east;spacing=6;" parent="1" vertex="1">
          <mxGeometry x="-630" y="720" width="749" height="280" as="geometry" />
        </mxCell>
        <mxCell id="qApgE1zXyVd_ZcpVIJfP-82" value="" style="shape=image;html=1;verticalAlign=top;verticalLabelPosition=bottom;labelBackgroundColor=#ffffff;imageAspect=0;aspect=fixed;image=https://cdn1.iconfinder.com/data/icons/bootstrap-vol-3/16/filetype-pdf-128.png;imageBackground=#FFFFFF;" parent="1" vertex="1">
          <mxGeometry x="-810.5" y="1056.55" width="40" height="40" as="geometry" />
        </mxCell>
        <mxCell id="qApgE1zXyVd_ZcpVIJfP-84" value="new PDF in bucket, &lt;br&gt;start step fn" style="sketch=0;points=[[0,0,0],[0.25,0,0],[0.5,0,0],[0.75,0,0],[1,0,0],[0,1,0],[0.25,1,0],[0.5,1,0],[0.75,1,0],[1,1,0],[0,0.25,0],[0,0.5,0],[0,0.75,0],[1,0.25,0],[1,0.5,0],[1,0.75,0]];outlineConnect=0;fontColor=#232F3E;gradientColor=#F78E04;gradientDirection=north;fillColor=#D05C17;strokeColor=#ffffff;dashed=0;verticalLabelPosition=bottom;verticalAlign=top;align=center;html=1;fontSize=12;fontStyle=0;aspect=fixed;shape=mxgraph.aws4.resourceIcon;resIcon=mxgraph.aws4.lambda;" parent="1" vertex="1">
          <mxGeometry x="-720.5" y="920.55" width="40" height="40" as="geometry" />
        </mxCell>
        <mxCell id="qApgE1zXyVd_ZcpVIJfP-86" value="Textract" style="sketch=0;points=[[0,0,0],[0.25,0,0],[0.5,0,0],[0.75,0,0],[1,0,0],[0,1,0],[0.25,1,0],[0.5,1,0],[0.75,1,0],[1,1,0],[0,0.25,0],[0,0.5,0],[0,0.75,0],[1,0.25,0],[1,0.5,0],[1,0.75,0]];outlineConnect=0;fontColor=#232F3E;gradientColor=#4AB29A;gradientDirection=north;fillColor=#116D5B;strokeColor=#ffffff;dashed=0;verticalLabelPosition=bottom;verticalAlign=top;align=center;html=1;fontSize=12;fontStyle=0;aspect=fixed;shape=mxgraph.aws4.resourceIcon;resIcon=mxgraph.aws4.textract;" parent="1" vertex="1">
          <mxGeometry x="-625" y="1052.55" width="44" height="44" as="geometry" />
        </mxCell>
        <mxCell id="qApgE1zXyVd_ZcpVIJfP-87" value="" style="shape=flexArrow;endArrow=classic;html=1;rounded=0;width=7.333333333333333;endSize=6.185714285714286;exitX=0.5;exitY=0;exitDx=0;exitDy=0;exitPerimeter=0;endWidth=19.523809523809526;fillColor=#FFFFFF;" parent="1" source="qApgE1zXyVd_ZcpVIJfP-83" edge="1">
          <mxGeometry width="50" height="50" relative="1" as="geometry">
            <mxPoint x="-620.5" y="1030.55" as="sourcePoint" />
            <mxPoint x="-699.5" y="1000.55" as="targetPoint" />
          </mxGeometry>
        </mxCell>
        <mxCell id="qApgE1zXyVd_ZcpVIJfP-88" value="" style="shape=flexArrow;endArrow=classic;html=1;rounded=0;entryX=0;entryY=0.5;entryDx=0;entryDy=0;entryPerimeter=0;width=7.333333333333333;endSize=5.433333333333334;endWidth=13.111111111111112;fillColor=#e1d5e7;exitX=0.5;exitY=0;exitDx=0;exitDy=0;exitPerimeter=0;strokeColor=#9673a6;" parent="1" source="qApgE1zXyVd_ZcpVIJfP-84" target="qApgE1zXyVd_ZcpVIJfP-85" edge="1">
          <mxGeometry width="50" height="50" relative="1" as="geometry">
            <mxPoint x="-650.5" y="870.55" as="sourcePoint" />
            <mxPoint x="-660.5" y="920.55" as="targetPoint" />
            <Array as="points">
              <mxPoint x="-700.5" y="870.55" />
            </Array>
          </mxGeometry>
        </mxCell>
        <mxCell id="qApgE1zXyVd_ZcpVIJfP-91" value="" style="shape=flexArrow;endArrow=classic;html=1;rounded=0;entryX=0;entryY=0.5;entryDx=0;entryDy=0;entryPerimeter=0;endWidth=17.333333333333332;endSize=4.42;width=8;fillColor=#FFFFFF;" parent="1" source="qApgE1zXyVd_ZcpVIJfP-82" target="qApgE1zXyVd_ZcpVIJfP-83" edge="1">
          <mxGeometry width="50" height="50" relative="1" as="geometry">
            <mxPoint x="-507.5" y="1046.55" as="sourcePoint" />
            <mxPoint x="-420.5" y="1046.55" as="targetPoint" />
          </mxGeometry>
        </mxCell>
        <mxCell id="qApgE1zXyVd_ZcpVIJfP-101" value="" style="shape=flexArrow;endArrow=classic;html=1;rounded=0;endWidth=17.333333333333332;endSize=4.42;width=8;fillColor=#FFFFFF;" parent="1" source="qApgE1zXyVd_ZcpVIJfP-99" edge="1">
          <mxGeometry width="50" height="50" relative="1" as="geometry">
            <mxPoint x="-261" y="870" as="sourcePoint" />
            <mxPoint x="-281" y="1010" as="targetPoint" />
            <Array as="points">
              <mxPoint x="-281" y="872" />
            </Array>
          </mxGeometry>
        </mxCell>
        <mxCell id="qApgE1zXyVd_ZcpVIJfP-102" value="" style="shape=flexArrow;endArrow=classic;html=1;rounded=0;entryX=0.795;entryY=0.397;entryDx=0;entryDy=0;entryPerimeter=0;endWidth=12.888888888888888;endSize=5.773333333333333;width=6.666666666666667;fillColor=#FFFFFF;exitX=0.25;exitY=1;exitDx=0;exitDy=0;exitPerimeter=0;" parent="1" source="qApgE1zXyVd_ZcpVIJfP-85" target="qApgE1zXyVd_ZcpVIJfP-86" edge="1">
          <mxGeometry width="50" height="50" relative="1" as="geometry">
            <mxPoint x="-604.5" y="930.55" as="sourcePoint" />
            <mxPoint x="-473" y="1007.55" as="targetPoint" />
            <Array as="points">
              <mxPoint x="-553.5" y="1070.55" />
            </Array>
          </mxGeometry>
        </mxCell>
        <mxCell id="qApgE1zXyVd_ZcpVIJfP-103" value="" style="shape=flexArrow;endArrow=classic;html=1;rounded=0;endWidth=12.888888888888888;endSize=5.773333333333333;width=6.666666666666667;fillColor=#FFFFFF;" parent="1" target="qApgE1zXyVd_ZcpVIJfP-85" edge="1">
          <mxGeometry width="50" height="50" relative="1" as="geometry">
            <mxPoint x="-580" y="1051" as="sourcePoint" />
            <mxPoint x="-539.5" y="934.4599999999999" as="targetPoint" />
            <Array as="points">
              <mxPoint x="-543" y="1051" />
            </Array>
          </mxGeometry>
        </mxCell>
        <mxCell id="qApgE1zXyVd_ZcpVIJfP-104" value="&lt;font style=&quot;font-size: 13px;&quot;&gt;ETL Pipeline PDF to Aurora DB with Step Functions&lt;/font&gt;" style="rounded=0;whiteSpace=wrap;html=1;fontSize=10;fillColor=#E6D0DE;gradientDirection=south;fontFamily=Helvetica;strokeColor=#6c8ebf;align=center;gradientColor=#CDA2BE;" parent="1" vertex="1">
          <mxGeometry x="-630" y="680" width="450" height="30" as="geometry" />
        </mxCell>
        <mxCell id="qApgE1zXyVd_ZcpVIJfP-107" value="&lt;p style=&quot;line-height: 0%;&quot;&gt;Table&lt;/p&gt;" style="shape=image;html=1;verticalAlign=top;verticalLabelPosition=bottom;labelBackgroundColor=#ffffff;imageAspect=0;aspect=fixed;image=https://cdn1.iconfinder.com/data/icons/bootstrap-vol-3/16/filetype-csv-128.png;fontFamily=Helvetica;fontSize=12;fillColor=#D9E2FF;gradientColor=#C9D6FF;gradientDirection=south;" parent="1" vertex="1">
          <mxGeometry x="-301" y="1013" width="43" height="43" as="geometry" />
        </mxCell>
        <mxCell id="qApgE1zXyVd_ZcpVIJfP-108" value="" style="shape=flexArrow;endArrow=classic;html=1;rounded=0;endWidth=17.333333333333332;endSize=4.42;width=8;fillColor=#e1d5e7;entryX=0;entryY=0.5;entryDx=0;entryDy=0;entryPerimeter=0;strokeColor=#9673a6;" parent="1" target="qApgE1zXyVd_ZcpVIJfP-110" edge="1">
          <mxGeometry width="50" height="50" relative="1" as="geometry">
            <mxPoint x="-350" y="872" as="sourcePoint" />
            <mxPoint x="-241" y="872" as="targetPoint" />
          </mxGeometry>
        </mxCell>
        <mxCell id="qApgE1zXyVd_ZcpVIJfP-109" value="Validation bucket" style="sketch=0;points=[[0,0,0],[0.25,0,0],[0.5,0,0],[0.75,0,0],[1,0,0],[0,1,0],[0.25,1,0],[0.5,1,0],[0.75,1,0],[1,1,0],[0,0.25,0],[0,0.5,0],[0,0.75,0],[1,0.25,0],[1,0.5,0],[1,0.75,0]];outlineConnect=0;fontColor=#232F3E;gradientColor=#60A337;gradientDirection=north;fillColor=#277116;strokeColor=#ffffff;dashed=0;verticalLabelPosition=bottom;verticalAlign=top;align=center;html=1;fontSize=12;fontStyle=0;aspect=fixed;shape=mxgraph.aws4.resourceIcon;resIcon=mxgraph.aws4.s3;" parent="1" vertex="1">
          <mxGeometry x="-231" y="1077" width="42" height="42" as="geometry" />
        </mxCell>
        <mxCell id="qApgE1zXyVd_ZcpVIJfP-110" value="&lt;p style=&quot;line-height: 80%;&quot;&gt;&lt;span style=&quot;font-size: 10px;&quot;&gt;Table validator&lt;/span&gt;&lt;/p&gt;" style="sketch=0;points=[[0,0,0],[0.25,0,0],[0.5,0,0],[0.75,0,0],[1,0,0],[0,1,0],[0.25,1,0],[0.5,1,0],[0.75,1,0],[1,1,0],[0,0.25,0],[0,0.5,0],[0,0.75,0],[1,0.25,0],[1,0.5,0],[1,0.75,0]];outlineConnect=0;fontColor=#232F3E;gradientColor=#F78E04;gradientDirection=north;fillColor=#D05C17;strokeColor=#ffffff;dashed=0;verticalLabelPosition=bottom;verticalAlign=top;align=center;html=1;fontSize=12;fontStyle=0;aspect=fixed;shape=mxgraph.aws4.resourceIcon;resIcon=mxgraph.aws4.lambda;spacing=-11;" parent="1" vertex="1">
          <mxGeometry x="-231" y="850" width="40" height="40" as="geometry" />
        </mxCell>
        <mxCell id="qApgE1zXyVd_ZcpVIJfP-111" value="" style="shape=flexArrow;endArrow=classic;html=1;rounded=0;endWidth=17.333333333333332;endSize=4.42;width=8;fillColor=#FFFFFF;exitX=0.5;exitY=0;exitDx=0;exitDy=0;exitPerimeter=0;" parent="1" source="qApgE1zXyVd_ZcpVIJfP-109" edge="1">
          <mxGeometry width="50" height="50" relative="1" as="geometry">
            <mxPoint x="-131" y="1050" as="sourcePoint" />
            <mxPoint x="-210" y="910" as="targetPoint" />
          </mxGeometry>
        </mxCell>
        <mxCell id="qApgE1zXyVd_ZcpVIJfP-112" value="&lt;p style=&quot;line-height: 0%; font-size: 11px;&quot;&gt;&lt;font style=&quot;font-size: 11px;&quot;&gt;Is table&amp;nbsp;&lt;/font&gt;&lt;/p&gt;&lt;p style=&quot;line-height: 0%; font-size: 11px;&quot;&gt;&lt;font style=&quot;font-size: 11px;&quot;&gt;good?&lt;/font&gt;&lt;/p&gt;" style="shape=rhombus;html=1;dashed=0;whitespace=wrap;perimeter=rhombusPerimeter;gradientColor=#D4FFD9;fillColor=#FBFFC7;" parent="1" vertex="1">
          <mxGeometry x="-141" y="840" width="71" height="55" as="geometry" />
        </mxCell>
        <mxCell id="qApgE1zXyVd_ZcpVIJfP-113" value="" style="shape=flexArrow;endArrow=classic;html=1;rounded=0;endWidth=17.333333333333332;endSize=4.42;width=8;fillColor=#e1d5e7;strokeColor=#9673a6;" parent="1" edge="1">
          <mxGeometry width="50" height="50" relative="1" as="geometry">
            <mxPoint x="-191" y="869.88" as="sourcePoint" />
            <mxPoint x="-141" y="869.71" as="targetPoint" />
          </mxGeometry>
        </mxCell>
        <mxCell id="qApgE1zXyVd_ZcpVIJfP-114" value="Prod bucket" style="sketch=0;points=[[0,0,0],[0.25,0,0],[0.5,0,0],[0.75,0,0],[1,0,0],[0,1,0],[0.25,1,0],[0.5,1,0],[0.75,1,0],[1,1,0],[0,0.25,0],[0,0.5,0],[0,0.75,0],[1,0.25,0],[1,0.5,0],[1,0.75,0]];outlineConnect=0;fontColor=#232F3E;gradientColor=#60A337;gradientDirection=north;fillColor=#277116;strokeColor=#ffffff;dashed=0;verticalLabelPosition=bottom;verticalAlign=top;align=center;html=1;fontSize=12;fontStyle=0;aspect=fixed;shape=mxgraph.aws4.resourceIcon;resIcon=mxgraph.aws4.s3;" parent="1" vertex="1">
          <mxGeometry x="-71" y="1073" width="42" height="42" as="geometry" />
        </mxCell>
        <mxCell id="qApgE1zXyVd_ZcpVIJfP-115" value="&lt;p style=&quot;line-height: 80%;&quot;&gt;&lt;span style=&quot;font-size: 10px;&quot;&gt;Fail logger&lt;/span&gt;&lt;/p&gt;" style="sketch=0;points=[[0,0,0],[0.25,0,0],[0.5,0,0],[0.75,0,0],[1,0,0],[0,1,0],[0.25,1,0],[0.5,1,0],[0.75,1,0],[1,1,0],[0,0.25,0],[0,0.5,0],[0,0.75,0],[1,0.25,0],[1,0.5,0],[1,0.75,0]];outlineConnect=0;fontColor=#232F3E;gradientColor=#F78E04;gradientDirection=north;fillColor=#D05C17;strokeColor=#ffffff;dashed=0;verticalLabelPosition=bottom;verticalAlign=top;align=center;html=1;fontSize=12;fontStyle=0;aspect=fixed;shape=mxgraph.aws4.resourceIcon;resIcon=mxgraph.aws4.lambda;spacing=-11;" parent="1" vertex="1">
          <mxGeometry x="-51" y="740" width="40" height="40" as="geometry" />
        </mxCell>
        <mxCell id="qApgE1zXyVd_ZcpVIJfP-116" value="" style="shape=flexArrow;endArrow=classic;html=1;rounded=0;endWidth=17.333333333333332;endSize=4.42;width=8;fillColor=#FFFFFF;entryX=0.75;entryY=0;entryDx=0;entryDy=0;entryPerimeter=0;" parent="1" target="qApgE1zXyVd_ZcpVIJfP-109" edge="1">
          <mxGeometry width="50" height="50" relative="1" as="geometry">
            <mxPoint x="-199" y="910" as="sourcePoint" />
            <mxPoint x="-171" y="910" as="targetPoint" />
          </mxGeometry>
        </mxCell>
        <mxCell id="qApgE1zXyVd_ZcpVIJfP-117" value="" style="shape=flexArrow;endArrow=classic;html=1;rounded=0;endWidth=17.333333333333332;endSize=4.42;width=8;fillColor=#FFFFFF;exitX=1;exitY=0.5;exitDx=0;exitDy=0;exitPerimeter=0;" parent="1" source="qApgE1zXyVd_ZcpVIJfP-109" edge="1">
          <mxGeometry width="50" height="50" relative="1" as="geometry">
            <mxPoint x="-116.79" y="1119" as="sourcePoint" />
            <mxPoint x="-121" y="1000" as="targetPoint" />
            <Array as="points">
              <mxPoint x="-121" y="1098" />
            </Array>
          </mxGeometry>
        </mxCell>
        <mxCell id="qApgE1zXyVd_ZcpVIJfP-118" value="&lt;p style=&quot;line-height: 0%; font-size: 11px;&quot;&gt;&lt;font style=&quot;font-size: 11px;&quot;&gt;Prod aggregator,&amp;nbsp;&lt;/font&gt;&lt;/p&gt;&lt;p style=&quot;line-height: 0%; font-size: 11px;&quot;&gt;&lt;font style=&quot;font-size: 11px;&quot;&gt;validation deleter,&lt;/font&gt;&lt;/p&gt;&lt;p style=&quot;line-height: 0%; font-size: 11px;&quot;&gt;&lt;font style=&quot;font-size: 11px;&quot;&gt;success logger&lt;/font&gt;&lt;/p&gt;" style="sketch=0;points=[[0,0,0],[0.25,0,0],[0.5,0,0],[0.75,0,0],[1,0,0],[0,1,0],[0.25,1,0],[0.5,1,0],[0.75,1,0],[1,1,0],[0,0.25,0],[0,0.5,0],[0,0.75,0],[1,0.25,0],[1,0.5,0],[1,0.75,0]];outlineConnect=0;fontColor=#232F3E;gradientColor=#F78E04;gradientDirection=north;fillColor=#D05C17;strokeColor=#ffffff;dashed=0;verticalLabelPosition=bottom;verticalAlign=top;align=center;html=1;fontSize=12;fontStyle=0;aspect=fixed;shape=mxgraph.aws4.resourceIcon;resIcon=mxgraph.aws4.lambda;spacing=-4;labelBackgroundColor=default;" parent="1" vertex="1">
          <mxGeometry x="-123.60000000000001" y="926.9599999999999" width="27.19" height="27.19" as="geometry" />
        </mxCell>
        <mxCell id="qApgE1zXyVd_ZcpVIJfP-119" value="" style="shape=flexArrow;endArrow=classic;html=1;rounded=0;endWidth=28;endSize=5.52;width=8;fillColor=#e1d5e7;exitX=0.5;exitY=1;exitDx=0;exitDy=0;entryX=0.75;entryY=0;entryDx=0;entryDy=0;entryPerimeter=0;strokeColor=#9673a6;" parent="1" source="qApgE1zXyVd_ZcpVIJfP-112" target="qApgE1zXyVd_ZcpVIJfP-118" edge="1">
          <mxGeometry width="50" height="50" relative="1" as="geometry">
            <mxPoint x="-61" y="889.88" as="sourcePoint" />
            <mxPoint x="-11" y="889.71" as="targetPoint" />
          </mxGeometry>
        </mxCell>
        <mxCell id="qApgE1zXyVd_ZcpVIJfP-120" value="YES" style="edgeLabel;html=1;align=center;verticalAlign=middle;resizable=0;points=[];fontSize=11;fontFamily=Helvetica;spacingLeft=-11;" parent="qApgE1zXyVd_ZcpVIJfP-119" vertex="1" connectable="0">
          <mxGeometry x="-0.0109" y="4" relative="1" as="geometry">
            <mxPoint as="offset" />
          </mxGeometry>
        </mxCell>
        <mxCell id="qApgE1zXyVd_ZcpVIJfP-125" value="" style="shape=flexArrow;endArrow=classic;html=1;rounded=0;endWidth=17.333333333333332;endSize=4.42;width=8;fillColor=#e1d5e7;strokeColor=#9673a6;" parent="1" source="qApgE1zXyVd_ZcpVIJfP-118" target="qApgE1zXyVd_ZcpVIJfP-126" edge="1">
          <mxGeometry width="50" height="50" relative="1" as="geometry">
            <mxPoint x="-51" y="920.1700000000001" as="sourcePoint" />
            <mxPoint x="-1" y="920" as="targetPoint" />
            <Array as="points">
              <mxPoint x="-11" y="936" />
              <mxPoint x="-10" y="890" />
            </Array>
          </mxGeometry>
        </mxCell>
        <mxCell id="qApgE1zXyVd_ZcpVIJfP-126" value="&lt;p style=&quot;line-height: 80%;&quot;&gt;&lt;span style=&quot;font-size: 10px; background-color: rgb(255, 252, 240);&quot;&gt;Get next table&lt;/span&gt;&lt;/p&gt;" style="sketch=0;points=[[0,0,0],[0.25,0,0],[0.5,0,0],[0.75,0,0],[1,0,0],[0,1,0],[0.25,1,0],[0.5,1,0],[0.75,1,0],[1,1,0],[0,0.25,0],[0,0.5,0],[0,0.75,0],[1,0.25,0],[1,0.5,0],[1,0.75,0]];outlineConnect=0;fontColor=#232F3E;gradientColor=#F78E04;gradientDirection=north;fillColor=#D05C17;strokeColor=#ffffff;dashed=0;verticalLabelPosition=bottom;verticalAlign=top;align=center;html=1;fontSize=12;fontStyle=0;aspect=fixed;shape=mxgraph.aws4.resourceIcon;resIcon=mxgraph.aws4.lambda;spacing=-11;" parent="1" vertex="1">
          <mxGeometry x="29" y="870" width="40" height="40" as="geometry" />
        </mxCell>
        <mxCell id="qApgE1zXyVd_ZcpVIJfP-127" value="" style="shape=flexArrow;endArrow=classic;html=1;rounded=0;endWidth=17.333333333333332;endSize=2.8285714285714287;width=6.857142857142857;fillColor=#e1d5e7;strokeColor=#9673a6;exitX=1;exitY=0.5;exitDx=0;exitDy=0;exitPerimeter=0;entryX=0.5;entryY=0;entryDx=0;entryDy=0;entryPerimeter=0;gradientColor=#6600CC;" parent="1" source="qApgE1zXyVd_ZcpVIJfP-126" target="qApgE1zXyVd_ZcpVIJfP-110" edge="1">
          <mxGeometry width="50" height="50" relative="1" as="geometry">
            <mxPoint x="39" y="901" as="sourcePoint" />
            <mxPoint x="-94" y="946" as="targetPoint" />
            <Array as="points">
              <mxPoint x="89" y="890" />
              <mxPoint x="89" y="830" />
              <mxPoint x="-81" y="830" />
              <mxPoint x="-211" y="830" />
            </Array>
          </mxGeometry>
        </mxCell>
        <mxCell id="qApgE1zXyVd_ZcpVIJfP-128" value="" style="shape=flexArrow;endArrow=classic;html=1;rounded=0;endWidth=17.333333333333332;endSize=4.42;width=8;fillColor=#e1d5e7;exitX=0.5;exitY=0;exitDx=0;exitDy=0;strokeColor=#9673a6;entryX=0;entryY=0.5;entryDx=0;entryDy=0;entryPerimeter=0;" parent="1" source="qApgE1zXyVd_ZcpVIJfP-112" target="qApgE1zXyVd_ZcpVIJfP-115" edge="1">
          <mxGeometry width="50" height="50" relative="1" as="geometry">
            <mxPoint x="-71" y="870" as="sourcePoint" />
            <mxPoint x="-31" y="800" as="targetPoint" />
            <Array as="points">
              <mxPoint x="-105" y="760" />
            </Array>
          </mxGeometry>
        </mxCell>
        <mxCell id="qApgE1zXyVd_ZcpVIJfP-129" value="NO" style="edgeLabel;html=1;align=center;verticalAlign=middle;resizable=0;points=[];fontSize=11;fontFamily=Helvetica;spacing=1;spacingLeft=0;spacingBottom=-60;" parent="qApgE1zXyVd_ZcpVIJfP-128" vertex="1" connectable="0">
          <mxGeometry x="-0.0109" y="4" relative="1" as="geometry">
            <mxPoint as="offset" />
          </mxGeometry>
        </mxCell>
        <mxCell id="qApgE1zXyVd_ZcpVIJfP-130" value="" style="shape=flexArrow;endArrow=classic;html=1;rounded=0;endWidth=17.333333333333332;endSize=4.42;width=8;fillColor=#FFFFFF;textOpacity=80;" parent="1" target="qApgE1zXyVd_ZcpVIJfP-114" edge="1">
          <mxGeometry width="50" height="50" relative="1" as="geometry">
            <mxPoint x="-90" y="950" as="sourcePoint" />
            <mxPoint x="-40.29" y="1077" as="targetPoint" />
            <Array as="points">
              <mxPoint x="-51" y="950" />
            </Array>
          </mxGeometry>
        </mxCell>
        <mxCell id="qApgE1zXyVd_ZcpVIJfP-131" value="" style="shape=flexArrow;endArrow=classic;html=1;rounded=0;endWidth=17.333333333333332;endSize=4.42;width=8;fillColor=#cdeb8b;exitX=1;exitY=0.25;exitDx=0;exitDy=0;exitPerimeter=0;entryX=0.172;entryY=0.985;entryDx=0;entryDy=0;entryPerimeter=0;strokeColor=#36393d;" parent="1" source="qApgE1zXyVd_ZcpVIJfP-114" target="qApgE1zXyVd_ZcpVIJfP-133" edge="1">
          <mxGeometry width="50" height="50" relative="1" as="geometry">
            <mxPoint x="89" y="1048" as="sourcePoint" />
            <mxPoint x="157" y="950" as="targetPoint" />
            <Array as="points">
              <mxPoint x="177" y="1080" />
            </Array>
          </mxGeometry>
        </mxCell>
        <mxCell id="qApgE1zXyVd_ZcpVIJfP-132" value="" style="shape=flexArrow;endArrow=classic;html=1;rounded=0;endWidth=17.333333333333332;endSize=4.42;width=8;fillColor=#cdeb8b;exitX=0.75;exitY=1;exitDx=0;exitDy=0;entryX=1;entryY=0.75;entryDx=0;entryDy=0;entryPerimeter=0;strokeColor=#36393d;" parent="1" source="qApgE1zXyVd_ZcpVIJfP-133" target="qApgE1zXyVd_ZcpVIJfP-114" edge="1">
          <mxGeometry width="50" height="50" relative="1" as="geometry">
            <mxPoint x="197" y="985.5" as="sourcePoint" />
            <mxPoint x="129" y="1083.5" as="targetPoint" />
            <Array as="points">
              <mxPoint x="202" y="1100" />
            </Array>
          </mxGeometry>
        </mxCell>
        <mxCell id="qApgE1zXyVd_ZcpVIJfP-133" value="Tableau" style="shape=image;html=1;verticalAlign=top;verticalLabelPosition=bottom;labelBackgroundColor=#ffffff;imageAspect=0;aspect=fixed;image=https://cdn1.iconfinder.com/data/icons/ionicons-fill-vol-2/512/logo-tableau-128.png;fontFamily=Helvetica;fontSize=10;fillColor=#D9E2FF;gradientColor=#C9D6FF;gradientDirection=south;" parent="1" vertex="1">
          <mxGeometry x="169" y="841.25" width="44" height="44" as="geometry" />
        </mxCell>
        <mxCell id="qApgE1zXyVd_ZcpVIJfP-134" value="&lt;p style=&quot;line-height: 0%;&quot;&gt;Prod aggregated&amp;nbsp;&lt;/p&gt;&lt;p style=&quot;line-height: 0%;&quot;&gt;table&lt;/p&gt;" style="shape=image;html=1;verticalAlign=top;verticalLabelPosition=bottom;labelBackgroundColor=#ffffff;imageAspect=0;aspect=fixed;image=https://cdn1.iconfinder.com/data/icons/bootstrap-vol-3/16/filetype-csv-128.png;fontFamily=Helvetica;fontSize=12;fillColor=#D9E2FF;gradientColor=#C9D6FF;gradientDirection=south;imageBackground=default;" parent="1" vertex="1">
          <mxGeometry x="169" y="1011" width="43" height="43" as="geometry" />
        </mxCell>
        <mxCell id="qApgE1zXyVd_ZcpVIJfP-135" value="" style="shape=flexArrow;endArrow=classic;html=1;rounded=0;endWidth=17.333333333333332;endSize=4.42;width=8;fillColor=#e1d5e7;strokeColor=#9673a6;exitX=1;exitY=0.5;exitDx=0;exitDy=0;exitPerimeter=0;entryX=0.5;entryY=0;entryDx=0;entryDy=0;entryPerimeter=0;" parent="1" source="qApgE1zXyVd_ZcpVIJfP-115" target="qApgE1zXyVd_ZcpVIJfP-126" edge="1">
          <mxGeometry width="50" height="50" relative="1" as="geometry">
            <mxPoint x="-181" y="879.88" as="sourcePoint" />
            <mxPoint x="-131" y="879.71" as="targetPoint" />
            <Array as="points">
              <mxPoint x="49" y="760" />
            </Array>
          </mxGeometry>
        </mxCell>
        <mxCell id="qApgE1zXyVd_ZcpVIJfP-139" value="" style="shape=flexArrow;endArrow=classic;html=1;rounded=0;endWidth=17.333333333333332;endSize=4.42;width=8;fillColor=#e1d5e7;strokeColor=#9673a6;entryX=0;entryY=0.5;entryDx=0;entryDy=0;entryPerimeter=0;" parent="1" source="qApgE1zXyVd_ZcpVIJfP-85" target="qApgE1zXyVd_ZcpVIJfP-99" edge="1">
          <mxGeometry width="50" height="50" relative="1" as="geometry">
            <mxPoint x="-520" y="870.22" as="sourcePoint" />
            <mxPoint x="-470" y="870.0500000000001" as="targetPoint" />
          </mxGeometry>
        </mxCell>
        <mxCell id="qApgE1zXyVd_ZcpVIJfP-140" value="" style="shape=flexArrow;endArrow=classic;html=1;rounded=0;endWidth=12.888888888888888;endSize=5.773333333333333;width=6.666666666666667;fillColor=#FFFFFF;exitX=0.25;exitY=1;exitDx=0;exitDy=0;exitPerimeter=0;" parent="1" edge="1">
          <mxGeometry width="50" height="50" relative="1" as="geometry">
            <mxPoint x="-531" y="897.45" as="sourcePoint" />
            <mxPoint x="-699" y="1110" as="targetPoint" />
            <Array as="points">
              <mxPoint x="-530" y="1160" />
              <mxPoint x="-699" y="1160" />
            </Array>
          </mxGeometry>
        </mxCell>
        <mxCell id="qApgE1zXyVd_ZcpVIJfP-85" value="&lt;span style=&quot;background-color: rgb(255, 255, 204);&quot;&gt;Textract call,&lt;br&gt;Put JSON reponse in s3&lt;br&gt;&lt;/span&gt;" style="sketch=0;points=[[0,0,0],[0.25,0,0],[0.5,0,0],[0.75,0,0],[1,0,0],[0,1,0],[0.25,1,0],[0.5,1,0],[0.75,1,0],[1,1,0],[0,0.25,0],[0,0.5,0],[0,0.75,0],[1,0.25,0],[1,0.5,0],[1,0.75,0]];outlineConnect=0;fontColor=#232F3E;gradientColor=#F78E04;gradientDirection=north;fillColor=#D05C17;strokeColor=#ffffff;dashed=0;verticalLabelPosition=bottom;verticalAlign=top;align=center;html=1;fontSize=12;fontStyle=0;aspect=fixed;shape=mxgraph.aws4.resourceIcon;resIcon=mxgraph.aws4.lambda;" parent="1" vertex="1">
          <mxGeometry x="-563.5" y="850.55" width="40" height="40" as="geometry" />
        </mxCell>
        <mxCell id="qApgE1zXyVd_ZcpVIJfP-141" value="" style="shape=flexArrow;endArrow=classic;html=1;rounded=0;endWidth=12.888888888888888;endSize=5.773333333333333;width=6.666666666666667;fillColor=#FFFFFF;exitX=0.25;exitY=1;exitDx=0;exitDy=0;exitPerimeter=0;" parent="1" edge="1">
          <mxGeometry width="50" height="50" relative="1" as="geometry">
            <mxPoint x="-372" y="890.5500000000001" as="sourcePoint" />
            <mxPoint x="-680" y="1110" as="targetPoint" />
            <Array as="points">
              <mxPoint x="-370" y="1180" />
              <mxPoint x="-680" y="1180" />
            </Array>
          </mxGeometry>
        </mxCell>
        <mxCell id="qApgE1zXyVd_ZcpVIJfP-142" value="" style="shape=flexArrow;endArrow=classic;html=1;rounded=0;endWidth=12.888888888888888;endSize=5.773333333333333;width=6.666666666666667;fillColor=#FFFFFF;" parent="1" edge="1">
          <mxGeometry width="50" height="50" relative="1" as="geometry">
            <mxPoint x="-670" y="1110" as="sourcePoint" />
            <mxPoint x="-362" y="900.5500000000001" as="targetPoint" />
            <Array as="points">
              <mxPoint x="-670" y="1190" />
              <mxPoint x="-360" y="1190" />
            </Array>
          </mxGeometry>
        </mxCell>
        <mxCell id="qApgE1zXyVd_ZcpVIJfP-83" value="&lt;span style=&quot;background-color: rgb(255, 255, 204);&quot;&gt;Upload bucket&lt;/span&gt;" style="sketch=0;points=[[0,0,0],[0.25,0,0],[0.5,0,0],[0.75,0,0],[1,0,0],[0,1,0],[0.25,1,0],[0.5,1,0],[0.75,1,0],[1,1,0],[0,0.25,0],[0,0.5,0],[0,0.75,0],[1,0.25,0],[1,0.5,0],[1,0.75,0]];outlineConnect=0;fontColor=#232F3E;gradientColor=#60A337;gradientDirection=north;fillColor=#277116;strokeColor=#ffffff;dashed=0;verticalLabelPosition=bottom;verticalAlign=top;align=center;html=1;fontSize=12;fontStyle=0;aspect=fixed;shape=mxgraph.aws4.resourceIcon;resIcon=mxgraph.aws4.s3;" parent="1" vertex="1">
          <mxGeometry x="-720.5" y="1054.55" width="42" height="42" as="geometry" />
        </mxCell>
        <mxCell id="qApgE1zXyVd_ZcpVIJfP-99" value="&lt;p style=&quot;line-height: 80%;&quot;&gt;&lt;span style=&quot;font-size: 10px; background-color: rgb(255, 255, 204);&quot;&gt;JSON Parser&lt;/span&gt;&lt;/p&gt;" style="sketch=0;points=[[0,0,0],[0.25,0,0],[0.5,0,0],[0.75,0,0],[1,0,0],[0,1,0],[0.25,1,0],[0.5,1,0],[0.75,1,0],[1,1,0],[0,0.25,0],[0,0.5,0],[0,0.75,0],[1,0.25,0],[1,0.5,0],[1,0.75,0]];outlineConnect=0;fontColor=#232F3E;gradientColor=#F78E04;gradientDirection=north;fillColor=#D05C17;strokeColor=#ffffff;dashed=0;verticalLabelPosition=bottom;verticalAlign=top;align=center;html=1;fontSize=12;fontStyle=0;aspect=fixed;shape=mxgraph.aws4.resourceIcon;resIcon=mxgraph.aws4.lambda;spacing=-11;" parent="1" vertex="1">
          <mxGeometry x="-390" y="850.5500000000001" width="40" height="40" as="geometry" />
        </mxCell>
        <mxCell id="1-QTYW2aF2J0WStt7FWO-113" value="num_choices" style="shape=table;startSize=30;container=1;collapsible=1;childLayout=tableLayout;fixedRows=1;rowLines=0;fontStyle=1;align=center;resizeLast=1;html=1;whiteSpace=wrap;" parent="1" vertex="1">
          <mxGeometry x="-478.90999999999997" y="1380" width="115" height="220" as="geometry">
            <mxRectangle x="-475" y="1470" width="70" height="30" as="alternateBounds" />
          </mxGeometry>
        </mxCell>
        <mxCell id="1-QTYW2aF2J0WStt7FWO-114" value="" style="shape=tableRow;horizontal=0;startSize=0;swimlaneHead=0;swimlaneBody=0;fillColor=none;collapsible=0;dropTarget=0;points=[[0,0.5],[1,0.5]];portConstraint=eastwest;top=0;left=0;right=0;bottom=0;html=1;" parent="1-QTYW2aF2J0WStt7FWO-113" vertex="1">
          <mxGeometry y="30" width="115" height="20" as="geometry" />
        </mxCell>
        <mxCell id="1-QTYW2aF2J0WStt7FWO-115" value="id" style="shape=partialRectangle;connectable=0;fillColor=none;top=0;left=0;bottom=0;right=0;fontStyle=1;overflow=hidden;html=1;whiteSpace=wrap;" parent="1-QTYW2aF2J0WStt7FWO-114" vertex="1">
          <mxGeometry width="66" height="20" as="geometry">
            <mxRectangle width="66" height="20" as="alternateBounds" />
          </mxGeometry>
        </mxCell>
        <mxCell id="1-QTYW2aF2J0WStt7FWO-116" value="pk" style="shape=partialRectangle;connectable=0;fillColor=none;top=0;left=0;bottom=0;right=0;align=left;spacingLeft=6;fontStyle=5;overflow=hidden;html=1;whiteSpace=wrap;strokeColor=inherit;" parent="1-QTYW2aF2J0WStt7FWO-114" vertex="1">
          <mxGeometry x="66" width="49" height="20" as="geometry">
            <mxRectangle width="49" height="20" as="alternateBounds" />
          </mxGeometry>
        </mxCell>
        <mxCell id="1-QTYW2aF2J0WStt7FWO-138" style="shape=tableRow;horizontal=0;startSize=0;swimlaneHead=0;swimlaneBody=0;fillColor=none;collapsible=0;dropTarget=0;points=[[0,0.5],[1,0.5]];portConstraint=eastwest;top=0;left=0;right=0;bottom=0;html=1;" parent="1-QTYW2aF2J0WStt7FWO-113" vertex="1">
          <mxGeometry y="50" width="115" height="20" as="geometry" />
        </mxCell>
        <mxCell id="1-QTYW2aF2J0WStt7FWO-139" value="year" style="shape=partialRectangle;connectable=0;fillColor=none;top=0;left=0;bottom=0;right=0;editable=1;overflow=hidden;html=1;whiteSpace=wrap;" parent="1-QTYW2aF2J0WStt7FWO-138" vertex="1">
          <mxGeometry width="66" height="20" as="geometry">
            <mxRectangle width="66" height="20" as="alternateBounds" />
          </mxGeometry>
        </mxCell>
        <mxCell id="1-QTYW2aF2J0WStt7FWO-140" value="date" style="shape=partialRectangle;connectable=0;fillColor=none;top=0;left=0;bottom=0;right=0;align=left;spacingLeft=6;overflow=hidden;html=1;whiteSpace=wrap;" parent="1-QTYW2aF2J0WStt7FWO-138" vertex="1">
          <mxGeometry x="66" width="49" height="20" as="geometry">
            <mxRectangle width="49" height="20" as="alternateBounds" />
          </mxGeometry>
        </mxCell>
        <mxCell id="1-QTYW2aF2J0WStt7FWO-204" style="shape=tableRow;horizontal=0;startSize=0;swimlaneHead=0;swimlaneBody=0;fillColor=none;collapsible=0;dropTarget=0;points=[[0,0.5],[1,0.5]];portConstraint=eastwest;top=0;left=0;right=0;bottom=0;html=1;" parent="1-QTYW2aF2J0WStt7FWO-113" vertex="1">
          <mxGeometry y="70" width="115" height="30" as="geometry" />
        </mxCell>
        <mxCell id="1-QTYW2aF2J0WStt7FWO-205" value="pre_post" style="shape=partialRectangle;connectable=0;fillColor=none;top=0;left=0;bottom=0;right=0;editable=1;overflow=hidden;html=1;whiteSpace=wrap;" parent="1-QTYW2aF2J0WStt7FWO-204" vertex="1">
          <mxGeometry width="66" height="30" as="geometry">
            <mxRectangle width="66" height="30" as="alternateBounds" />
          </mxGeometry>
        </mxCell>
        <mxCell id="1-QTYW2aF2J0WStt7FWO-206" value="str" style="shape=partialRectangle;connectable=0;fillColor=none;top=0;left=0;bottom=0;right=0;align=left;spacingLeft=6;overflow=hidden;html=1;whiteSpace=wrap;" parent="1-QTYW2aF2J0WStt7FWO-204" vertex="1">
          <mxGeometry x="66" width="49" height="30" as="geometry">
            <mxRectangle width="49" height="30" as="alternateBounds" />
          </mxGeometry>
        </mxCell>
        <mxCell id="1-QTYW2aF2J0WStt7FWO-120" value="" style="shape=tableRow;horizontal=0;startSize=0;swimlaneHead=0;swimlaneBody=0;fillColor=none;collapsible=0;dropTarget=0;points=[[0,0.5],[1,0.5]];portConstraint=eastwest;top=0;left=0;right=0;bottom=0;html=1;" parent="1-QTYW2aF2J0WStt7FWO-113" vertex="1">
          <mxGeometry y="100" width="115" height="30" as="geometry" />
        </mxCell>
        <mxCell id="1-QTYW2aF2J0WStt7FWO-121" value="school" style="shape=partialRectangle;connectable=0;fillColor=none;top=0;left=0;bottom=0;right=0;editable=1;overflow=hidden;html=1;whiteSpace=wrap;" parent="1-QTYW2aF2J0WStt7FWO-120" vertex="1">
          <mxGeometry width="66" height="30" as="geometry">
            <mxRectangle width="66" height="30" as="alternateBounds" />
          </mxGeometry>
        </mxCell>
        <mxCell id="1-QTYW2aF2J0WStt7FWO-122" value="str" style="shape=partialRectangle;connectable=0;fillColor=none;top=0;left=0;bottom=0;right=0;align=left;spacingLeft=6;overflow=hidden;html=1;whiteSpace=wrap;" parent="1-QTYW2aF2J0WStt7FWO-120" vertex="1">
          <mxGeometry x="66" width="49" height="30" as="geometry">
            <mxRectangle width="49" height="30" as="alternateBounds" />
          </mxGeometry>
        </mxCell>
        <mxCell id="1-QTYW2aF2J0WStt7FWO-123" value="" style="shape=tableRow;horizontal=0;startSize=0;swimlaneHead=0;swimlaneBody=0;fillColor=none;collapsible=0;dropTarget=0;points=[[0,0.5],[1,0.5]];portConstraint=eastwest;top=0;left=0;right=0;bottom=0;html=1;" parent="1-QTYW2aF2J0WStt7FWO-113" vertex="1">
          <mxGeometry y="130" width="115" height="30" as="geometry" />
        </mxCell>
        <mxCell id="1-QTYW2aF2J0WStt7FWO-124" value="entree" style="shape=partialRectangle;connectable=0;fillColor=none;top=0;left=0;bottom=0;right=0;editable=1;overflow=hidden;html=1;whiteSpace=wrap;" parent="1-QTYW2aF2J0WStt7FWO-123" vertex="1">
          <mxGeometry width="66" height="30" as="geometry">
            <mxRectangle width="66" height="30" as="alternateBounds" />
          </mxGeometry>
        </mxCell>
        <mxCell id="1-QTYW2aF2J0WStt7FWO-125" value="int" style="shape=partialRectangle;connectable=0;fillColor=none;top=0;left=0;bottom=0;right=0;align=left;spacingLeft=6;overflow=hidden;html=1;whiteSpace=wrap;" parent="1-QTYW2aF2J0WStt7FWO-123" vertex="1">
          <mxGeometry x="66" width="49" height="30" as="geometry">
            <mxRectangle width="49" height="30" as="alternateBounds" />
          </mxGeometry>
        </mxCell>
        <mxCell id="1-QTYW2aF2J0WStt7FWO-126" style="shape=tableRow;horizontal=0;startSize=0;swimlaneHead=0;swimlaneBody=0;fillColor=none;collapsible=0;dropTarget=0;points=[[0,0.5],[1,0.5]];portConstraint=eastwest;top=0;left=0;right=0;bottom=0;html=1;" parent="1-QTYW2aF2J0WStt7FWO-113" vertex="1">
          <mxGeometry y="160" width="115" height="30" as="geometry" />
        </mxCell>
        <mxCell id="1-QTYW2aF2J0WStt7FWO-127" value="veg" style="shape=partialRectangle;connectable=0;fillColor=none;top=0;left=0;bottom=0;right=0;editable=1;overflow=hidden;html=1;whiteSpace=wrap;" parent="1-QTYW2aF2J0WStt7FWO-126" vertex="1">
          <mxGeometry width="66" height="30" as="geometry">
            <mxRectangle width="66" height="30" as="alternateBounds" />
          </mxGeometry>
        </mxCell>
        <mxCell id="1-QTYW2aF2J0WStt7FWO-128" value="int" style="shape=partialRectangle;connectable=0;fillColor=none;top=0;left=0;bottom=0;right=0;align=left;spacingLeft=6;overflow=hidden;html=1;whiteSpace=wrap;" parent="1-QTYW2aF2J0WStt7FWO-126" vertex="1">
          <mxGeometry x="66" width="49" height="30" as="geometry">
            <mxRectangle width="49" height="30" as="alternateBounds" />
          </mxGeometry>
        </mxCell>
        <mxCell id="1-QTYW2aF2J0WStt7FWO-129" style="shape=tableRow;horizontal=0;startSize=0;swimlaneHead=0;swimlaneBody=0;fillColor=none;collapsible=0;dropTarget=0;points=[[0,0.5],[1,0.5]];portConstraint=eastwest;top=0;left=0;right=0;bottom=0;html=1;" parent="1-QTYW2aF2J0WStt7FWO-113" vertex="1">
          <mxGeometry y="190" width="115" height="30" as="geometry" />
        </mxCell>
        <mxCell id="1-QTYW2aF2J0WStt7FWO-130" value="fruit" style="shape=partialRectangle;connectable=0;fillColor=none;top=0;left=0;bottom=0;right=0;editable=1;overflow=hidden;html=1;whiteSpace=wrap;" parent="1-QTYW2aF2J0WStt7FWO-129" vertex="1">
          <mxGeometry width="66" height="30" as="geometry">
            <mxRectangle width="66" height="30" as="alternateBounds" />
          </mxGeometry>
        </mxCell>
        <mxCell id="1-QTYW2aF2J0WStt7FWO-131" value="int" style="shape=partialRectangle;connectable=0;fillColor=none;top=0;left=0;bottom=0;right=0;align=left;spacingLeft=6;overflow=hidden;html=1;whiteSpace=wrap;" parent="1-QTYW2aF2J0WStt7FWO-129" vertex="1">
          <mxGeometry x="66" width="49" height="30" as="geometry">
            <mxRectangle width="49" height="30" as="alternateBounds" />
          </mxGeometry>
        </mxCell>
        <mxCell id="1-QTYW2aF2J0WStt7FWO-141" value="top_foods" style="shape=table;startSize=30;container=1;collapsible=1;childLayout=tableLayout;fixedRows=1;rowLines=0;fontStyle=1;align=center;resizeLast=1;html=1;whiteSpace=wrap;" parent="1" vertex="1">
          <mxGeometry x="-601" y="1700" width="115" height="240" as="geometry">
            <mxRectangle x="-475" y="1470" width="70" height="30" as="alternateBounds" />
          </mxGeometry>
        </mxCell>
        <mxCell id="1-QTYW2aF2J0WStt7FWO-142" value="" style="shape=tableRow;horizontal=0;startSize=0;swimlaneHead=0;swimlaneBody=0;fillColor=none;collapsible=0;dropTarget=0;points=[[0,0.5],[1,0.5]];portConstraint=eastwest;top=0;left=0;right=0;bottom=0;html=1;" parent="1-QTYW2aF2J0WStt7FWO-141" vertex="1">
          <mxGeometry y="30" width="115" height="30" as="geometry" />
        </mxCell>
        <mxCell id="1-QTYW2aF2J0WStt7FWO-143" value="id" style="shape=partialRectangle;connectable=0;fillColor=none;top=0;left=0;bottom=0;right=0;fontStyle=1;overflow=hidden;html=1;whiteSpace=wrap;" parent="1-QTYW2aF2J0WStt7FWO-142" vertex="1">
          <mxGeometry width="66" height="30" as="geometry">
            <mxRectangle width="66" height="30" as="alternateBounds" />
          </mxGeometry>
        </mxCell>
        <mxCell id="1-QTYW2aF2J0WStt7FWO-144" value="pk" style="shape=partialRectangle;connectable=0;fillColor=none;top=0;left=0;bottom=0;right=0;align=left;spacingLeft=6;fontStyle=5;overflow=hidden;html=1;whiteSpace=wrap;strokeColor=inherit;" parent="1-QTYW2aF2J0WStt7FWO-142" vertex="1">
          <mxGeometry x="66" width="49" height="30" as="geometry">
            <mxRectangle width="49" height="30" as="alternateBounds" />
          </mxGeometry>
        </mxCell>
        <mxCell id="1-QTYW2aF2J0WStt7FWO-145" style="shape=tableRow;horizontal=0;startSize=0;swimlaneHead=0;swimlaneBody=0;fillColor=none;collapsible=0;dropTarget=0;points=[[0,0.5],[1,0.5]];portConstraint=eastwest;top=0;left=0;right=0;bottom=0;html=1;" parent="1-QTYW2aF2J0WStt7FWO-141" vertex="1">
          <mxGeometry y="60" width="115" height="30" as="geometry" />
        </mxCell>
        <mxCell id="1-QTYW2aF2J0WStt7FWO-146" value="year" style="shape=partialRectangle;connectable=0;fillColor=none;top=0;left=0;bottom=0;right=0;editable=1;overflow=hidden;html=1;whiteSpace=wrap;" parent="1-QTYW2aF2J0WStt7FWO-145" vertex="1">
          <mxGeometry width="66" height="30" as="geometry">
            <mxRectangle width="66" height="30" as="alternateBounds" />
          </mxGeometry>
        </mxCell>
        <mxCell id="1-QTYW2aF2J0WStt7FWO-147" value="date" style="shape=partialRectangle;connectable=0;fillColor=none;top=0;left=0;bottom=0;right=0;align=left;spacingLeft=6;overflow=hidden;html=1;whiteSpace=wrap;" parent="1-QTYW2aF2J0WStt7FWO-145" vertex="1">
          <mxGeometry x="66" width="49" height="30" as="geometry">
            <mxRectangle width="49" height="30" as="alternateBounds" />
          </mxGeometry>
        </mxCell>
        <mxCell id="1-QTYW2aF2J0WStt7FWO-148" value="" style="shape=tableRow;horizontal=0;startSize=0;swimlaneHead=0;swimlaneBody=0;fillColor=none;collapsible=0;dropTarget=0;points=[[0,0.5],[1,0.5]];portConstraint=eastwest;top=0;left=0;right=0;bottom=0;html=1;" parent="1-QTYW2aF2J0WStt7FWO-141" vertex="1">
          <mxGeometry y="90" width="115" height="30" as="geometry" />
        </mxCell>
        <mxCell id="1-QTYW2aF2J0WStt7FWO-149" value="school" style="shape=partialRectangle;connectable=0;fillColor=none;top=0;left=0;bottom=0;right=0;editable=1;overflow=hidden;html=1;whiteSpace=wrap;" parent="1-QTYW2aF2J0WStt7FWO-148" vertex="1">
          <mxGeometry width="66" height="30" as="geometry">
            <mxRectangle width="66" height="30" as="alternateBounds" />
          </mxGeometry>
        </mxCell>
        <mxCell id="1-QTYW2aF2J0WStt7FWO-150" value="str" style="shape=partialRectangle;connectable=0;fillColor=none;top=0;left=0;bottom=0;right=0;align=left;spacingLeft=6;overflow=hidden;html=1;whiteSpace=wrap;" parent="1-QTYW2aF2J0WStt7FWO-148" vertex="1">
          <mxGeometry x="66" width="49" height="30" as="geometry">
            <mxRectangle width="49" height="30" as="alternateBounds" />
          </mxGeometry>
        </mxCell>
        <mxCell id="1-QTYW2aF2J0WStt7FWO-151" value="" style="shape=tableRow;horizontal=0;startSize=0;swimlaneHead=0;swimlaneBody=0;fillColor=none;collapsible=0;dropTarget=0;points=[[0,0.5],[1,0.5]];portConstraint=eastwest;top=0;left=0;right=0;bottom=0;html=1;" parent="1-QTYW2aF2J0WStt7FWO-141" vertex="1">
          <mxGeometry y="120" width="115" height="30" as="geometry" />
        </mxCell>
        <mxCell id="1-QTYW2aF2J0WStt7FWO-152" value="entree" style="shape=partialRectangle;connectable=0;fillColor=none;top=0;left=0;bottom=0;right=0;editable=1;overflow=hidden;html=1;whiteSpace=wrap;" parent="1-QTYW2aF2J0WStt7FWO-151" vertex="1">
          <mxGeometry width="66" height="30" as="geometry">
            <mxRectangle width="66" height="30" as="alternateBounds" />
          </mxGeometry>
        </mxCell>
        <mxCell id="1-QTYW2aF2J0WStt7FWO-153" value="str" style="shape=partialRectangle;connectable=0;fillColor=none;top=0;left=0;bottom=0;right=0;align=left;spacingLeft=6;overflow=hidden;html=1;whiteSpace=wrap;" parent="1-QTYW2aF2J0WStt7FWO-151" vertex="1">
          <mxGeometry x="66" width="49" height="30" as="geometry">
            <mxRectangle width="49" height="30" as="alternateBounds" />
          </mxGeometry>
        </mxCell>
        <mxCell id="1-QTYW2aF2J0WStt7FWO-154" style="shape=tableRow;horizontal=0;startSize=0;swimlaneHead=0;swimlaneBody=0;fillColor=none;collapsible=0;dropTarget=0;points=[[0,0.5],[1,0.5]];portConstraint=eastwest;top=0;left=0;right=0;bottom=0;html=1;" parent="1-QTYW2aF2J0WStt7FWO-141" vertex="1">
          <mxGeometry y="150" width="115" height="30" as="geometry" />
        </mxCell>
        <mxCell id="1-QTYW2aF2J0WStt7FWO-155" value="veg" style="shape=partialRectangle;connectable=0;fillColor=none;top=0;left=0;bottom=0;right=0;editable=1;overflow=hidden;html=1;whiteSpace=wrap;" parent="1-QTYW2aF2J0WStt7FWO-154" vertex="1">
          <mxGeometry width="66" height="30" as="geometry">
            <mxRectangle width="66" height="30" as="alternateBounds" />
          </mxGeometry>
        </mxCell>
        <mxCell id="1-QTYW2aF2J0WStt7FWO-156" value="str" style="shape=partialRectangle;connectable=0;fillColor=none;top=0;left=0;bottom=0;right=0;align=left;spacingLeft=6;overflow=hidden;html=1;whiteSpace=wrap;" parent="1-QTYW2aF2J0WStt7FWO-154" vertex="1">
          <mxGeometry x="66" width="49" height="30" as="geometry">
            <mxRectangle width="49" height="30" as="alternateBounds" />
          </mxGeometry>
        </mxCell>
        <mxCell id="1-QTYW2aF2J0WStt7FWO-157" style="shape=tableRow;horizontal=0;startSize=0;swimlaneHead=0;swimlaneBody=0;fillColor=none;collapsible=0;dropTarget=0;points=[[0,0.5],[1,0.5]];portConstraint=eastwest;top=0;left=0;right=0;bottom=0;html=1;" parent="1-QTYW2aF2J0WStt7FWO-141" vertex="1">
          <mxGeometry y="180" width="115" height="30" as="geometry" />
        </mxCell>
        <mxCell id="1-QTYW2aF2J0WStt7FWO-158" value="fruit" style="shape=partialRectangle;connectable=0;fillColor=none;top=0;left=0;bottom=0;right=0;editable=1;overflow=hidden;html=1;whiteSpace=wrap;" parent="1-QTYW2aF2J0WStt7FWO-157" vertex="1">
          <mxGeometry width="66" height="30" as="geometry">
            <mxRectangle width="66" height="30" as="alternateBounds" />
          </mxGeometry>
        </mxCell>
        <mxCell id="1-QTYW2aF2J0WStt7FWO-159" value="str" style="shape=partialRectangle;connectable=0;fillColor=none;top=0;left=0;bottom=0;right=0;align=left;spacingLeft=6;overflow=hidden;html=1;whiteSpace=wrap;" parent="1-QTYW2aF2J0WStt7FWO-157" vertex="1">
          <mxGeometry x="66" width="49" height="30" as="geometry">
            <mxRectangle width="49" height="30" as="alternateBounds" />
          </mxGeometry>
        </mxCell>
        <mxCell id="1-QTYW2aF2J0WStt7FWO-160" style="shape=tableRow;horizontal=0;startSize=0;swimlaneHead=0;swimlaneBody=0;fillColor=none;collapsible=0;dropTarget=0;points=[[0,0.5],[1,0.5]];portConstraint=eastwest;top=0;left=0;right=0;bottom=0;html=1;" parent="1-QTYW2aF2J0WStt7FWO-141" vertex="1">
          <mxGeometry y="210" width="115" height="30" as="geometry" />
        </mxCell>
        <mxCell id="1-QTYW2aF2J0WStt7FWO-161" value="grain" style="shape=partialRectangle;connectable=0;fillColor=none;top=0;left=0;bottom=0;right=0;editable=1;overflow=hidden;html=1;whiteSpace=wrap;" parent="1-QTYW2aF2J0WStt7FWO-160" vertex="1">
          <mxGeometry width="66" height="30" as="geometry">
            <mxRectangle width="66" height="30" as="alternateBounds" />
          </mxGeometry>
        </mxCell>
        <mxCell id="1-QTYW2aF2J0WStt7FWO-162" value="str" style="shape=partialRectangle;connectable=0;fillColor=none;top=0;left=0;bottom=0;right=0;align=left;spacingLeft=6;overflow=hidden;html=1;whiteSpace=wrap;" parent="1-QTYW2aF2J0WStt7FWO-160" vertex="1">
          <mxGeometry x="66" width="49" height="30" as="geometry">
            <mxRectangle width="49" height="30" as="alternateBounds" />
          </mxGeometry>
        </mxCell>
        <mxCell id="1-QTYW2aF2J0WStt7FWO-163" value="menu_pre" style="shape=table;startSize=30;container=1;collapsible=1;childLayout=tableLayout;fixedRows=1;rowLines=0;fontStyle=1;align=center;resizeLast=1;html=1;whiteSpace=wrap;" parent="1" vertex="1">
          <mxGeometry x="-745" y="1440" width="115" height="240" as="geometry">
            <mxRectangle x="-475" y="1470" width="70" height="30" as="alternateBounds" />
          </mxGeometry>
        </mxCell>
        <mxCell id="1-QTYW2aF2J0WStt7FWO-164" value="" style="shape=tableRow;horizontal=0;startSize=0;swimlaneHead=0;swimlaneBody=0;fillColor=none;collapsible=0;dropTarget=0;points=[[0,0.5],[1,0.5]];portConstraint=eastwest;top=0;left=0;right=0;bottom=0;html=1;" parent="1-QTYW2aF2J0WStt7FWO-163" vertex="1">
          <mxGeometry y="30" width="115" height="30" as="geometry" />
        </mxCell>
        <mxCell id="1-QTYW2aF2J0WStt7FWO-165" value="id" style="shape=partialRectangle;connectable=0;fillColor=none;top=0;left=0;bottom=0;right=0;fontStyle=1;overflow=hidden;html=1;whiteSpace=wrap;" parent="1-QTYW2aF2J0WStt7FWO-164" vertex="1">
          <mxGeometry width="66" height="30" as="geometry">
            <mxRectangle width="66" height="30" as="alternateBounds" />
          </mxGeometry>
        </mxCell>
        <mxCell id="1-QTYW2aF2J0WStt7FWO-166" value="pk" style="shape=partialRectangle;connectable=0;fillColor=none;top=0;left=0;bottom=0;right=0;align=left;spacingLeft=6;fontStyle=5;overflow=hidden;html=1;whiteSpace=wrap;strokeColor=inherit;" parent="1-QTYW2aF2J0WStt7FWO-164" vertex="1">
          <mxGeometry x="66" width="49" height="30" as="geometry">
            <mxRectangle width="49" height="30" as="alternateBounds" />
          </mxGeometry>
        </mxCell>
        <mxCell id="1-QTYW2aF2J0WStt7FWO-167" style="shape=tableRow;horizontal=0;startSize=0;swimlaneHead=0;swimlaneBody=0;fillColor=none;collapsible=0;dropTarget=0;points=[[0,0.5],[1,0.5]];portConstraint=eastwest;top=0;left=0;right=0;bottom=0;html=1;" parent="1-QTYW2aF2J0WStt7FWO-163" vertex="1">
          <mxGeometry y="60" width="115" height="30" as="geometry" />
        </mxCell>
        <mxCell id="1-QTYW2aF2J0WStt7FWO-168" value="year" style="shape=partialRectangle;connectable=0;fillColor=none;top=0;left=0;bottom=0;right=0;editable=1;overflow=hidden;html=1;whiteSpace=wrap;" parent="1-QTYW2aF2J0WStt7FWO-167" vertex="1">
          <mxGeometry width="66" height="30" as="geometry">
            <mxRectangle width="66" height="30" as="alternateBounds" />
          </mxGeometry>
        </mxCell>
        <mxCell id="1-QTYW2aF2J0WStt7FWO-169" value="date" style="shape=partialRectangle;connectable=0;fillColor=none;top=0;left=0;bottom=0;right=0;align=left;spacingLeft=6;overflow=hidden;html=1;whiteSpace=wrap;" parent="1-QTYW2aF2J0WStt7FWO-167" vertex="1">
          <mxGeometry x="66" width="49" height="30" as="geometry">
            <mxRectangle width="49" height="30" as="alternateBounds" />
          </mxGeometry>
        </mxCell>
        <mxCell id="1-QTYW2aF2J0WStt7FWO-207" style="shape=tableRow;horizontal=0;startSize=0;swimlaneHead=0;swimlaneBody=0;fillColor=none;collapsible=0;dropTarget=0;points=[[0,0.5],[1,0.5]];portConstraint=eastwest;top=0;left=0;right=0;bottom=0;html=1;" parent="1-QTYW2aF2J0WStt7FWO-163" vertex="1">
          <mxGeometry y="90" width="115" height="30" as="geometry" />
        </mxCell>
        <mxCell id="1-QTYW2aF2J0WStt7FWO-208" value="pre_post" style="shape=partialRectangle;connectable=0;fillColor=none;top=0;left=0;bottom=0;right=0;editable=1;overflow=hidden;html=1;whiteSpace=wrap;" parent="1-QTYW2aF2J0WStt7FWO-207" vertex="1">
          <mxGeometry width="66" height="30" as="geometry">
            <mxRectangle width="66" height="30" as="alternateBounds" />
          </mxGeometry>
        </mxCell>
        <mxCell id="1-QTYW2aF2J0WStt7FWO-209" value="str" style="shape=partialRectangle;connectable=0;fillColor=none;top=0;left=0;bottom=0;right=0;align=left;spacingLeft=6;overflow=hidden;html=1;whiteSpace=wrap;" parent="1-QTYW2aF2J0WStt7FWO-207" vertex="1">
          <mxGeometry x="66" width="49" height="30" as="geometry">
            <mxRectangle width="49" height="30" as="alternateBounds" />
          </mxGeometry>
        </mxCell>
        <mxCell id="1-QTYW2aF2J0WStt7FWO-170" value="" style="shape=tableRow;horizontal=0;startSize=0;swimlaneHead=0;swimlaneBody=0;fillColor=none;collapsible=0;dropTarget=0;points=[[0,0.5],[1,0.5]];portConstraint=eastwest;top=0;left=0;right=0;bottom=0;html=1;" parent="1-QTYW2aF2J0WStt7FWO-163" vertex="1">
          <mxGeometry y="120" width="115" height="30" as="geometry" />
        </mxCell>
        <mxCell id="1-QTYW2aF2J0WStt7FWO-171" value="school" style="shape=partialRectangle;connectable=0;fillColor=none;top=0;left=0;bottom=0;right=0;editable=1;overflow=hidden;html=1;whiteSpace=wrap;" parent="1-QTYW2aF2J0WStt7FWO-170" vertex="1">
          <mxGeometry width="66" height="30" as="geometry">
            <mxRectangle width="66" height="30" as="alternateBounds" />
          </mxGeometry>
        </mxCell>
        <mxCell id="1-QTYW2aF2J0WStt7FWO-172" value="str" style="shape=partialRectangle;connectable=0;fillColor=none;top=0;left=0;bottom=0;right=0;align=left;spacingLeft=6;overflow=hidden;html=1;whiteSpace=wrap;" parent="1-QTYW2aF2J0WStt7FWO-170" vertex="1">
          <mxGeometry x="66" width="49" height="30" as="geometry">
            <mxRectangle width="49" height="30" as="alternateBounds" />
          </mxGeometry>
        </mxCell>
        <mxCell id="1-QTYW2aF2J0WStt7FWO-173" value="" style="shape=tableRow;horizontal=0;startSize=0;swimlaneHead=0;swimlaneBody=0;fillColor=none;collapsible=0;dropTarget=0;points=[[0,0.5],[1,0.5]];portConstraint=eastwest;top=0;left=0;right=0;bottom=0;html=1;" parent="1-QTYW2aF2J0WStt7FWO-163" vertex="1">
          <mxGeometry y="150" width="115" height="30" as="geometry" />
        </mxCell>
        <mxCell id="1-QTYW2aF2J0WStt7FWO-174" value="weekday" style="shape=partialRectangle;connectable=0;fillColor=none;top=0;left=0;bottom=0;right=0;editable=1;overflow=hidden;html=1;whiteSpace=wrap;" parent="1-QTYW2aF2J0WStt7FWO-173" vertex="1">
          <mxGeometry width="66" height="30" as="geometry">
            <mxRectangle width="66" height="30" as="alternateBounds" />
          </mxGeometry>
        </mxCell>
        <mxCell id="1-QTYW2aF2J0WStt7FWO-175" value="str" style="shape=partialRectangle;connectable=0;fillColor=none;top=0;left=0;bottom=0;right=0;align=left;spacingLeft=6;overflow=hidden;html=1;whiteSpace=wrap;" parent="1-QTYW2aF2J0WStt7FWO-173" vertex="1">
          <mxGeometry x="66" width="49" height="30" as="geometry">
            <mxRectangle width="49" height="30" as="alternateBounds" />
          </mxGeometry>
        </mxCell>
        <mxCell id="1-QTYW2aF2J0WStt7FWO-176" style="shape=tableRow;horizontal=0;startSize=0;swimlaneHead=0;swimlaneBody=0;fillColor=none;collapsible=0;dropTarget=0;points=[[0,0.5],[1,0.5]];portConstraint=eastwest;top=0;left=0;right=0;bottom=0;html=1;" parent="1-QTYW2aF2J0WStt7FWO-163" vertex="1">
          <mxGeometry y="180" width="115" height="30" as="geometry" />
        </mxCell>
        <mxCell id="1-QTYW2aF2J0WStt7FWO-177" value="entree1" style="shape=partialRectangle;connectable=0;fillColor=none;top=0;left=0;bottom=0;right=0;editable=1;overflow=hidden;html=1;whiteSpace=wrap;" parent="1-QTYW2aF2J0WStt7FWO-176" vertex="1">
          <mxGeometry width="66" height="30" as="geometry">
            <mxRectangle width="66" height="30" as="alternateBounds" />
          </mxGeometry>
        </mxCell>
        <mxCell id="1-QTYW2aF2J0WStt7FWO-178" value="int" style="shape=partialRectangle;connectable=0;fillColor=none;top=0;left=0;bottom=0;right=0;align=left;spacingLeft=6;overflow=hidden;html=1;whiteSpace=wrap;" parent="1-QTYW2aF2J0WStt7FWO-176" vertex="1">
          <mxGeometry x="66" width="49" height="30" as="geometry">
            <mxRectangle width="49" height="30" as="alternateBounds" />
          </mxGeometry>
        </mxCell>
        <mxCell id="1-QTYW2aF2J0WStt7FWO-179" style="shape=tableRow;horizontal=0;startSize=0;swimlaneHead=0;swimlaneBody=0;fillColor=none;collapsible=0;dropTarget=0;points=[[0,0.5],[1,0.5]];portConstraint=eastwest;top=0;left=0;right=0;bottom=0;html=1;" parent="1-QTYW2aF2J0WStt7FWO-163" vertex="1">
          <mxGeometry y="210" width="115" height="30" as="geometry" />
        </mxCell>
        <mxCell id="1-QTYW2aF2J0WStt7FWO-180" value="entree2" style="shape=partialRectangle;connectable=0;fillColor=none;top=0;left=0;bottom=0;right=0;editable=1;overflow=hidden;html=1;whiteSpace=wrap;" parent="1-QTYW2aF2J0WStt7FWO-179" vertex="1">
          <mxGeometry width="66" height="30" as="geometry">
            <mxRectangle width="66" height="30" as="alternateBounds" />
          </mxGeometry>
        </mxCell>
        <mxCell id="1-QTYW2aF2J0WStt7FWO-181" value="int" style="shape=partialRectangle;connectable=0;fillColor=none;top=0;left=0;bottom=0;right=0;align=left;spacingLeft=6;overflow=hidden;html=1;whiteSpace=wrap;" parent="1-QTYW2aF2J0WStt7FWO-179" vertex="1">
          <mxGeometry x="66" width="49" height="30" as="geometry">
            <mxRectangle width="49" height="30" as="alternateBounds" />
          </mxGeometry>
        </mxCell>
        <mxCell id="1-QTYW2aF2J0WStt7FWO-234" value="" style="edgeStyle=entityRelationEdgeStyle;fontSize=12;html=1;endArrow=ERzeroToMany;startArrow=ERmandOne;rounded=0;exitX=1;exitY=0.5;exitDx=0;exitDy=0;entryX=0;entryY=0.5;entryDx=0;entryDy=0;" parent="1" source="1-QTYW2aF2J0WStt7FWO-148" target="1-QTYW2aF2J0WStt7FWO-120" edge="1">
          <mxGeometry width="100" height="100" relative="1" as="geometry">
            <mxPoint x="-429.30999999999995" y="1514.0000000000005" as="sourcePoint" />
            <mxPoint x="-350" y="1670" as="targetPoint" />
          </mxGeometry>
        </mxCell>
        <mxCell id="1-QTYW2aF2J0WStt7FWO-235" value="" style="edgeStyle=entityRelationEdgeStyle;fontSize=12;html=1;endArrow=ERzeroToMany;startArrow=ERmandOne;rounded=0;exitX=1;exitY=0.5;exitDx=0;exitDy=0;entryX=1;entryY=0;entryDx=0;entryDy=0;" parent="1" source="1-QTYW2aF2J0WStt7FWO-170" target="1-QTYW2aF2J0WStt7FWO-141" edge="1">
          <mxGeometry width="100" height="100" relative="1" as="geometry">
            <mxPoint x="-502.68000000000006" y="1522.0099999999998" as="sourcePoint" />
            <mxPoint x="-570" y="1730" as="targetPoint" />
          </mxGeometry>
        </mxCell>
        <mxCell id="1-QTYW2aF2J0WStt7FWO-236" value="" style="edgeStyle=entityRelationEdgeStyle;fontSize=12;html=1;endArrow=ERzeroToMany;startArrow=ERmandOne;rounded=0;exitX=-0.01;exitY=0.303;exitDx=0;exitDy=0;entryX=1;entryY=0;entryDx=0;entryDy=0;exitPerimeter=0;" parent="1" source="1-QTYW2aF2J0WStt7FWO-120" target="1-QTYW2aF2J0WStt7FWO-163" edge="1">
          <mxGeometry width="100" height="100" relative="1" as="geometry">
            <mxPoint x="-545" y="1505" as="sourcePoint" />
            <mxPoint x="-210" y="1410" as="targetPoint" />
          </mxGeometry>
        </mxCell>
      </root>
    </mxGraphModel>
  </diagram>
</mxfile>
